<?xml version="1.0" standalone="no"?>
<!DOCTYPE svg PUBLIC "-//W3C//DTD SVG 20010904//EN"
 "http://www.w3.org/TR/2001/REC-SVG-20010904/DTD/svg10.dtd">
<svg version="1.0" xmlns="http://www.w3.org/2000/svg"
 width="512.000000pt" height="512.000000pt" viewBox="0 0 512.000000 512.000000"
 preserveAspectRatio="xMidYMid meet">

<g transform="translate(0.000000,512.000000) scale(0.100000,-0.100000)"
fill="#000000" stroke="none">
<path d="M2336 4889 c-560 -65 -1074 -382 -1382 -854 -123 -189 -223 -434
-269 -660 -42 -201 -47 -381 -43 -1570 3 -1014 5 -1105 21 -1159 29 -97 77
-176 152 -251 133 -134 301 -183 483 -140 111 26 157 57 312 211 154 152 188
174 275 174 41 0 46 -4 196 -153 164 -163 221 -202 334 -232 75 -19 174 -19
250 0 115 30 160 60 315 211 83 82 163 150 183 159 43 18 139 20 170 4 12 -6
87 -75 167 -153 154 -151 215 -192 325 -221 111 -29 246 -14 355 37 62 30 189
159 228 234 70 135 66 58 70 1279 3 1189 -1 1369 -43 1570 -50 245 -170 524
-313 725 -74 105 -249 291 -351 374 -279 227 -630 374 -996 416 -103 11 -337
11 -439 -1z m-174 -1717 c62 -31 121 -89 155 -154 24 -46 28 -65 28 -138 0
-73 -4 -92 -28 -138 -59 -113 -154 -174 -278 -180 -67 -4 -85 0 -138 23 -71
32 -142 102 -173 172 -29 66 -29 180 0 245 30 68 97 136 167 170 54 26 69 29
140 26 59 -2 93 -9 127 -26z m1506 -7 c60 -33 110 -84 144 -147 19 -36 23 -58
23 -138 0 -86 -3 -100 -29 -148 -34 -60 -85 -111 -148 -144 -36 -19 -58 -23
-138 -23 -80 0 -102 4 -138 23 -63 33 -114 84 -148 144 -26 48 -29 62 -29 148
0 79 4 102 23 137 67 127 168 186 307 180 66 -3 90 -8 133 -32z"/>
</g>
</svg>
